<svg width="34" height="34" viewBox="0 0 34 34" fill="none" xmlns="http://www.w3.org/2000/svg">
<path d="M33.0625 26.6181C33.0625 27.3588 32.8032 27.9884 32.2847 28.5069L28.5069 32.2847C27.9884 32.8032 27.3588 33.0625 26.6181 33.0625C25.8773 33.0625 25.2477 32.8032 24.7292 32.2847L16.5625 24.1181L8.39583 32.2847C7.87731 32.8032 7.24769 33.0625 6.50694 33.0625C5.7662 33.0625 5.13657 32.8032 4.61806 32.2847L0.840278 28.5069C0.321759 27.9884 0.0625 27.3588 0.0625 26.6181C0.0625 25.8773 0.321759 25.2477 0.840278 24.7292L9.00694 16.5625L0.840278 8.39583C0.321759 7.87731 0.0625 7.24769 0.0625 6.50694C0.0625 5.7662 0.321759 5.13657 0.840278 4.61806L4.61806 0.840278C5.13657 0.321759 5.7662 0.0625 6.50694 0.0625C7.24769 0.0625 7.87731 0.321759 8.39583 0.840278L16.5625 9.00694L24.7292 0.840278C25.2477 0.321759 25.8773 0.0625 26.6181 0.0625C27.3588 0.0625 27.9884 0.321759 28.5069 0.840278L32.2847 4.61806C32.8032 5.13657 33.0625 5.7662 33.0625 6.50694C33.0625 7.24769 32.8032 7.87731 32.2847 8.39583L24.1181 16.5625L32.2847 24.7292C32.8032 25.2477 33.0625 25.8773 33.0625 26.6181Z" fill="white"/>
</svg>
