<svg width="40" height="40" viewBox="0 0 40 40" fill="none" xmlns="http://www.w3.org/2000/svg">
<path d="M12.0111 39.9999C10.9101 39.9999 9.96788 39.6086 9.18449 38.8259C8.4011 38.0433 8.00874 37.1013 8.0074 36C8.00607 34.8986 8.39843 33.9573 9.18449 33.176C9.97055 32.3946 10.9128 32.0026 12.0111 32C13.1094 31.9973 14.0523 32.3893 14.8397 33.176C15.6271 33.9626 16.0188 34.904 16.0148 36C16.0108 37.096 15.6191 38.038 14.8397 38.8259C14.0603 39.6139 13.1175 40.0053 12.0111 39.9999ZM32.0296 39.9999C30.9286 39.9999 29.9864 39.6086 29.203 38.8259C28.4196 38.0433 28.0272 37.1013 28.0259 36C28.0246 34.8986 28.4169 33.9573 29.203 33.176C29.989 32.3946 30.9312 32.0026 32.0296 32C33.1279 31.9973 34.0708 32.3893 34.8582 33.176C35.6456 33.9626 36.0373 34.904 36.0333 36C36.0293 37.096 35.6376 38.038 34.8582 38.8259C34.0788 39.6139 33.1359 40.0053 32.0296 39.9999ZM8.40777 3.99999H37.9351C38.7024 3.99999 39.2863 4.34199 39.6867 5.02599C40.087 5.70999 40.1037 6.40133 39.7367 7.09999L32.6301 19.9C32.2631 20.5666 31.7714 21.0833 31.1548 21.45C30.5382 21.8166 29.8623 22 29.1269 22H14.2131L12.0111 26H34.0314C34.5986 26 35.0744 26.192 35.4588 26.576C35.8431 26.96 36.0346 27.4346 36.0333 28C36.032 28.5653 35.8398 29.0406 35.4568 29.426C35.0737 29.8113 34.5986 30.0026 34.0314 30H12.0111C10.5097 30 9.37533 29.342 8.60796 28.026C7.84058 26.71 7.80722 25.4013 8.50787 24.1L11.2104 19.2L4.00371 3.99999H2.00186C1.43467 3.99999 0.95956 3.80799 0.576539 3.424C0.193519 3.04 0.00134147 2.56533 6.90293e-06 2C-0.00132766 1.43466 0.19085 0.959999 0.576539 0.575999C0.962229 0.192 1.43733 0 2.00186 0H5.25486C5.62187 0 5.97219 0.1 6.30583 0.3C6.63947 0.5 6.8897 0.783332 7.05653 1.15L8.40777 3.99999Z" fill="white"/>
</svg>
